<?xml version="1.0" encoding="UTF-8"?>
<svg id="Layer_1" data-name="Layer 1" xmlns="http://www.w3.org/2000/svg" viewBox="0 0 478.75 292.74">
  <defs>
    <style>
      .cls-1 {
        fill: #3a9bb6;
      }

      .cls-1, .cls-2 {
        stroke-width: 0px;
      }

      .cls-2 {
        fill: #19313e;
      }
    </style>
  </defs>
  <path class="cls-1" d="M300.97,8.68c-5.71,11.69-11.73,23.23-18.04,34.6-3.86,6.87-10.69,7.84-17.96,7.76-33.55-.44-67.11-.76-100.66-1-13.78-.08-27.6.4-41.39.4-32.01,0-42.8,35.88-42.8,43.04,0,34.04.28,68.07-.36,102.07-.24,12.78,4.1,22.66,12.86,31.38,6.35,6.27,6.23,7.23,1.65,14.79-8.72,14.27-17.16,28.73-26.16,42.8-7.03,11.05-14.75,10.93-21.9-.04-5.18-7.96-9.68-16.31-14.63-24.39-9.08-14.87-18.2-29.78-27.53-44.48-2.77-4.42-5.71-8.56-2.93-13.86,2.61-5.1,7.68-5.3,12.58-5.51h1.13c16.92-.12,18.36-1.53,18.36-18.65.08-30.3-.44-60.64.16-90.94.52-25.2,12.02-45.61,30.86-61.92,4.86-4.26,10.45-7.8,15.95-11.21C94.99,4.3,178.65,0,203.65,0h87.24c1.69,0,3.38,0,5.02.2,5.51.68,7.47,3.5,5.06,8.48Z"/>
  <path class="cls-1" d="M80.16,13.5C100.82.73,178.65,0,203.65,0h87.24"/>
  <path class="cls-2" d="M471.72,94.51c-4.82,1.41-9.81,2.33-14.75,3.21-8.84,1.53-11.29,3.94-11.17,12.9.2,15.99,1.13,78.12.84,93.19-.52,27.41-13.34,48.66-33.71,65.98-17.36,14.75-37.09,22.54-60.4,22.3-53.12-.56-106.25-.16-159.37-.28-13.66-.04-14.79-2.09-8.8-14.43,3.9-8.04,7.96-16.03,11.81-24.07,3.09-6.43,8-9.08,15.23-9,24.43.24,120.67-.72,144.34,0,23.23.76,44.16-20.94,44.08-43-.12-26.04-.64-99.7-.6-110.51.04-7.92-2.17-14.87-6.87-21.34-6.43-8.76-5.83-10.57-.16-19.97,7.35-12.3,13.98-24.99,20.9-37.53.8-1.49,1.45-3.05,2.25-4.5,4.78-8.72,11.33-9.08,16.36-.52,6.75,11.57,12.82,23.55,19.73,35.04,7.92,13.22,16.36,26.16,24.83,39.02,4.34,6.55,3.13,11.25-4.54,13.5Z"/>
  <path class="cls-1" d="M390.58,16.76c-5.95,10.45-12.02,20.94-18.97,30.74-1.73,2.45-6.87,3.29-10.49,3.34-8.52.12-51.88.28-51.88.28-7.92.04-10.37-2.85-7.11-9.85,5.75-12.3,11.81-24.47,18.53-36.21,1.53-2.69,6.35-4.74,9.76-4.86,12.42-.56,54.91.06,61.34,2.8,4.34,1.81.95,10.02-1.18,13.76Z"/>
  <path class="cls-2" d="M177.63,258.39c-5.95,10.45-12.02,20.94-18.97,30.74-1.73,2.45-6.87,3.29-10.49,3.34-8.52.12-51.88.28-51.88.28-7.92.04-10.37-2.85-7.11-9.85,5.75-12.3,11.81-24.47,18.53-36.21,1.53-2.69,6.35-4.74,9.76-4.86,12.42-.56,54.91.06,61.34,2.8,4.34,1.81.95,10.02-1.18,13.76Z"/>
</svg>