<?xml version="1.0" encoding="UTF-8"?>
<svg id="Layer_1" data-name="Layer 1" xmlns="http://www.w3.org/2000/svg" viewBox="0 0 90.07 119.39">
  <defs>
    <style>
      .cls-1 {
        stroke: #231f20;
        stroke-miterlimit: 10;
        stroke-width: .23px;
      }

      .cls-1, .cls-2 {
        fill: #231f20;
      }

      .cls-3 {
        fill: #fff;
      }

      .cls-3, .cls-2, .cls-4 {
        stroke-width: 0px;
      }

      .cls-4 {
        fill: #fbb040;
      }
    </style>
  </defs>
  <g>
    <g>
      <path class="cls-4" d="M8.22,48.24L76.54,11.79l12.75,8.01-54.57,29.06c-.12.06-.2.18-.21.32,0,.14.06.27.17.34l26.48,18.47v16.41L8.22,48.24Z"/>
      <path class="cls-3" d="M76.52,12.23l11.99,7.53-53.98,28.74c-.24.13-.4.37-.41.64-.01.27.11.53.33.69l26.32,18.36v15.47L8.97,48.27,76.52,12.23M76.55,11.33L7.47,48.2l54.08,36.96v-17.36l-26.65-18.59,55.17-29.38-13.52-8.5h0Z"/>
    </g>
    <g>
      <path class="cls-4" d="M76.39,41.25c0-.14-.07-.26-.19-.33-.06-.04-.13-.06-.2-.06-.06,0-.13.01-.18.04l-29.74,15.62-10.43-7.27,54.03-28.77v78.73l-13.59,9.58.3-67.53Z"/>
      <path class="cls-3" d="M89.29,21.13v77.87l-12.8,9.03.29-66.77c0-.28-.14-.53-.38-.67-.12-.08-.26-.12-.4-.12-.13,0-.25.03-.37.09l-29.53,15.5-9.7-6.77,52.89-28.17M90.07,19.83l-55.17,29.38,11.14,7.77,29.96-15.72-.3,68.29,14.37-10.13V19.83h0Z"/>
    </g>
    <g>
      <path class="cls-4" d="M7.86,61.55v-12.61l53.48,36.53c.07.05.14.07.22.07.06,0,.13-.02.18-.05.13-.07.21-.2.21-.35v-36.07l13.66-7.18-.29,66.9L7.86,61.55Z"/>
      <path class="cls-3" d="M75.21,42.55l-.29,65.5L8.25,61.35v-11.67l52.86,36.12c.13.09.29.14.44.14.13,0,.25-.03.37-.1.26-.13.42-.4.42-.69v-35.84l12.88-6.76M76,41.25l-14.45,7.59v36.31L7.47,48.2v13.56l68.23,47.79.3-68.29h0Z"/>
    </g>
  </g>
  <g>
    <path class="cls-2" d="M3.6,31.54l-1.89.97-.98-1.91,1.89-.97.98,1.91ZM11.37,34.91c1.21,2.35.52,4.98-1.92,6.24-2.4,1.24-5.02.28-6.26-2.12-1.26-2.46-.41-5.06,1.94-6.27,2.35-1.21,4.96-.31,6.23,2.16ZM6.87,29.86l-1.89.97-.98-1.91,1.89-.97.98,1.91ZM9.39,35.92c-.74-1.44-2.14-2.09-3.44-1.42-1.27.66-1.49,2.09-.77,3.48.73,1.43,2.2,2.04,3.44,1.4,1.24-.63,1.49-2.07.78-3.46Z"/>
    <path class="cls-2" d="M14.13,26.89l-1.89.97-.98-1.9,1.89-.97.98,1.91ZM14.96,28.46l3.22,6.27c1.58,3.09.89,5.07-2.06,6.59l-.84-1.65c1.59-.82,1.98-2.02,1.13-3.67l-3.37-6.56,1.92-.99Z"/>
    <path class="cls-2" d="M22.64,34.37l-1.9.98-5.7-11.1,1.91-.98,5.7,11.1Z"/>
    <path class="cls-2" d="M31.54,29.49c1.05,2.04.34,3.71-2.15,4.99l-.79-1.53c1.19-.65,1.37-1.77.72-3.12-.03.75-.5,1.36-1.38,1.81-2.21,1.14-4.53.27-5.7-2.02-1.19-2.32-.47-4.68,1.69-5.8,2.27-1.16,4.57-.22,5.74,2.04l1.86,3.62ZM27.72,26.92c-.69-1.34-1.87-1.86-2.97-1.3-1.01.52-1.18,1.84-.58,3.01.62,1.2,1.85,1.81,2.89,1.27,1.03-.53,1.24-1.85.66-2.99Z"/>
    <path class="cls-2" d="M33.24,19.07l3.22,6.27c1.58,3.09.89,5.08-2.06,6.59l-.85-1.65c1.6-.82,1.98-2.02,1.13-3.67l-3.37-6.56,1.92-.99Z"/>
    <path class="cls-2" d="M50.01,20.31l-11.15,5.72-1.01-1.96,6.22-3.2c-1.15-2.25-2.7-3.11-4.63-2.59-.6.16-1.19.42-1.82.74l-.9-1.75c.94-.49,1.56-.77,1.81-.88.25-.11.63-.21,1.16-.29,2.69-.41,4.8.85,6.33,3.78l2.99-1.54,1.01,1.96Z"/>
    <path class="cls-2" d="M53,18.77l-3.79,1.95-1.01-1.95,3.79-1.95,1,1.95Z"/>
    <path class="cls-2" d="M56.4,17.02l-3.79,1.95-1.01-1.96,3.79-1.95,1.01,1.96Z"/>
    <path class="cls-2" d="M59.8,15.28l-3.79,1.95-1-1.96,3.79-1.95,1.01,1.96Z"/>
    <path class="cls-2" d="M62.67,9.87c1.07,2.08.63,3.6-1.29,4.59l-2.03,1.04-1.01-1.96,1.63-.84c.64-.33.94-.72.93-1.19-.02-.25-.17-.69-.49-1.31l-3.76-7.32,1.92-.99,4.09,7.97Z"/>
    <path class="cls-2" d="M67.94,11.09l-1.91.98L60.34.98l1.91-.98,5.7,11.09Z"/>
  </g>
  <g>
    <path class="cls-1" d="M.16,69.7l.15-.21c.32.15.62.22.9.2.27-.02.66-.18,1.16-.48l4.45-2.63s.04-.02.06-.04c.17-.1.27-.18.32-.24.04-.05.06-.12.07-.19,0-.07,0-.15-.03-.23.29-.02.55-.05.81-.1.25-.05.49-.11.7-.18l.16.11-1.33,7.02s0,.04-.01.06c-.21,1.1-.1,1.8.32,2.11l.09.07-.15.21-3.15-2.25.15-.21c.3.17.53.28.68.32.15.04.26.01.32-.07.04-.06.09-.16.13-.29.04-.13.08-.31.13-.54l.2-1.02-2.89-2.07-.84.49c-.14.07-.25.15-.35.24-.1.08-.17.16-.23.25-.09.13-.1.28-.03.45.07.17.21.33.43.49l.04.03-.15.21-2.09-1.5ZM3.76,68.81l2.6,1.87.74-3.84-3.34,1.98Z"/>
    <path class="cls-1" d="M11.53,77.52c.59.42,1.18.65,1.77.67.59.02,1.29-.16,2.1-.55l.19.16-1.92,1.57-5.79-4.15.15-.21c.36.25.62.38.77.37.16,0,.34-.14.53-.41l3.55-4.97c.19-.27.27-.48.22-.63-.04-.15-.24-.36-.6-.61l.15-.21,2.97,2.13-.15.21c-.35-.25-.61-.38-.77-.37-.16,0-.34.14-.53.41l-3.54,4.95c-.24.33-.35.55-.32.65.02.1.17.25.46.46l.77.55Z"/>
    <path class="cls-1" d="M16.38,78.96l.67-.94,2.26,1.62-.67.94-2.25-1.62Z"/>
    <path class="cls-1" d="M18.23,82.64l.15-.21c.36.26.62.38.77.37.16,0,.33-.14.53-.41l3.56-4.97c.19-.27.26-.48.22-.63-.04-.16-.24-.36-.6-.62l.15-.21,2.95,2.11c.71.51,1.25.97,1.6,1.4.35.42.61.88.78,1.38.21.64.28,1.26.18,1.87-.09.6-.33,1.19-.73,1.74-.36.51-.79.91-1.29,1.2-.5.3-1.05.48-1.65.54-.5.05-.98,0-1.45-.13-.46-.14-.95-.4-1.47-.77l-3.71-2.65ZM24.62,78.18l-3.34,4.67c-.31.44-.46.77-.44.99.03.22.22.46.58.72l.39.28c.69.5,1.45.62,2.28.38.82-.24,1.56-.81,2.2-1.71.74-1.04,1.08-2.01,1-2.91-.07-.9-.55-1.67-1.43-2.3l-.52-.37c-.13-.1-.25-.13-.35-.1-.11.04-.23.15-.36.33Z"/>
    <path class="cls-1" d="M25.4,87.77l.15-.21c.32.15.62.21.9.19.27-.02.66-.17,1.16-.48l4.45-2.63s.04-.02.06-.04c.17-.1.27-.17.31-.23.04-.05.06-.12.07-.19,0-.07,0-.14-.03-.23.28-.02.55-.05.8-.1.25-.05.49-.11.7-.18l.17.12-1.33,7.02s0,.04,0,.06c-.21,1.1-.11,1.8.32,2.11l.09.06-.15.21-3.14-2.25.15-.21c.3.18.53.29.68.32.15.04.25.01.31-.07.05-.06.09-.16.13-.29.04-.13.08-.32.12-.54l.2-1.02-2.89-2.07-.84.49c-.13.07-.24.16-.34.24-.1.08-.18.17-.23.25-.09.14-.11.29-.04.45.07.17.22.33.44.49l.04.03-.15.21-2.1-1.5ZM29,86.88l2.6,1.87.74-3.84-3.35,1.97Z"/>
    <path class="cls-1" d="M33.03,93.23l.15-.21.1.07c.35.25.6.36.76.35.16-.01.33-.15.52-.41l3.56-4.97c.19-.27.27-.47.22-.63-.04-.15-.24-.36-.6-.61l.15-.21,3,2.15c.88.63,1.45,1.29,1.73,1.98.27.69.21,1.31-.19,1.87-.29.41-.65.63-1.09.69-.44.07-.95-.05-1.55-.34.15.4.2.91.12,1.55,0,.04,0,.07,0,.09l-.16,1.29s0,.06-.01.1c-.14,1.03,0,1.69.41,1.99.01,0,.03.02.06.04.03.01.05.03.07.04l-.17.23-2.11-1.51.43-2.6c.13-.81.15-1.36.07-1.64-.08-.28-.26-.52-.56-.74l-.36-.26-1.73,2.42c-.19.26-.26.47-.22.63.04.15.24.36.58.6l.1.07-.15.21-3.13-2.24ZM39.39,89.02l-1.6,2.24.59.42c.59.42,1.12.62,1.6.58.48-.04.9-.3,1.25-.78.32-.44.42-.89.3-1.36-.12-.46-.44-.88-.96-1.26-.31-.21-.52-.31-.66-.29-.14.02-.31.17-.51.45Z"/>
    <path class="cls-1" d="M46.12,102.79l-.24-.17,1.39-5.07-4.28,2.99-.24-.17,1.91-7.02s.01-.05.02-.09c.21-.78.12-1.34-.28-1.69l.15-.21,2.78,1.99-.15.21c-.25-.14-.44-.22-.59-.25-.14-.03-.24,0-.3.08-.07.09-.14.32-.24.67-.01.05-.03.09-.03.11l-1.3,4.68,2.7-1.88.41-1.45c.14-.51.19-.87.15-1.07-.04-.2-.16-.39-.35-.57l.15-.21,2.69,1.93-.15.21c-.24-.14-.42-.22-.57-.25-.15-.03-.25,0-.31.08-.04.05-.08.13-.12.24-.04.1-.09.28-.17.54l-1.29,4.59,3.78-2.67c.11-.08.22-.16.32-.26.1-.1.18-.19.25-.29.09-.13.1-.27.04-.43-.07-.16-.21-.33-.42-.49l.15-.21,2.01,1.43-.15.21c-.31-.17-.62-.22-.92-.17-.3.05-.65.21-1.04.49l-5.74,4.14Z"/>
    <path class="cls-1" d="M48.07,103.99l.15-.21c.32.15.62.22.89.2.27-.02.66-.18,1.16-.48l4.45-2.63s.04-.02.06-.04c.17-.1.27-.17.31-.24.04-.06.06-.12.07-.19,0-.07,0-.15-.03-.23.28-.02.55-.05.8-.1.25-.05.49-.11.71-.18l.16.12-1.32,7.02s0,.04-.01.07c-.21,1.1-.11,1.8.32,2.1l.09.06-.15.21-3.15-2.25.15-.21c.31.17.53.29.68.32.15.04.25.01.31-.07.05-.06.09-.16.13-.29.04-.13.08-.31.12-.54l.21-1.02-2.89-2.07-.84.49c-.13.08-.25.15-.34.24-.09.08-.17.16-.23.25-.09.13-.1.28-.04.45.07.17.22.33.44.49l.04.03-.15.21-2.09-1.5ZM51.67,103.11l2.6,1.86.74-3.84-3.35,1.98Z"/>
    <path class="cls-1" d="M55.82,109.55l.18-.26,8.65-3.2-1.53-1.09c-.43-.31-.91-.48-1.44-.52-.52-.04-1.27.07-2.24.31l-.11-.15,1.83-1.37,5.22,3.73-.11.15-8.8,3.24,1.32.94c.72.52,1.42.8,2.09.84s1.41-.14,2.24-.57l.16.18-2.04,1.62-5.4-3.87Z"/>
    <path class="cls-1" d="M61.68,113.75l.15-.21c.32.15.62.22.89.2.27-.02.66-.18,1.16-.47l4.45-2.63s.03-.02.06-.04c.16-.1.27-.18.31-.24.04-.05.06-.12.07-.19,0-.07,0-.15-.03-.24.29-.01.55-.05.8-.1.25-.04.48-.11.7-.18l.16.12-1.33,7.02s0,.04,0,.06c-.21,1.1-.11,1.8.32,2.1l.09.07-.15.21-3.15-2.25.15-.21c.3.17.53.28.68.32.15.04.25.01.32-.08.04-.06.09-.16.13-.29.04-.13.08-.31.12-.54l.21-1.02-2.9-2.07-.84.49c-.13.08-.25.15-.34.23-.09.08-.17.16-.23.25-.1.13-.11.28-.04.45.07.17.22.33.44.49l.04.03-.15.21-2.1-1.5ZM65.29,112.87l2.6,1.86.74-3.84-3.34,1.98Z"/>
  </g>
</svg>