<?xml version="1.0" encoding="UTF-8"?>
<svg xmlns="http://www.w3.org/2000/svg" viewBox="0 0 449.84 72.85">
  <defs>
    <style>
      .cls-1 {
        fill: #3a9bb6;
      }

      .cls-1, .cls-2 {
        stroke-width: 0px;
      }

      .cls-2 {
        fill: #19313e;
      }
    </style>
  </defs>
  <g id="Layer_11" data-name="Layer 11">
    <path class="cls-2" d="M169.29,68.45c-.53-.81-1.18-1.55-1.79-2.3-3.62-4.52-7.28-9.01-10.87-13.55-1.63-2.05-1.35-3.33.8-4.85.79-.55,1.54-1.18,2.23-1.87,3.09-3.08,4.06-6.91,3.98-11.16-.06-3.61-1.44-6.53-4.07-8.95-2.97-2.73-6.59-4.12-10.49-4.26-7.28-.27-14.57-.15-21.85-.17-1.22-.01-1.89.65-2.01,1.85-.05.51-.06,1.02-.06,1.53v21.38h-.02v21.8c0,2.34.54,2.86,2.87,2.85,2.28-.02,4.55-.01,6.82-.04,2.39-.04,2.91-.61,2.9-3.01-.03-4.07-.06-8.15-.05-12.22,0-1.05.22-2.07,1.34-2.53,1.11-.46,2.15-.15,2.96.64,1.02,1,1.99,2.07,2.87,3.19,3.1,3.99,6.18,7.99,9.22,12.02,1.04,1.39,2.31,2.01,4.04,1.95,2.51-.09,5.01-.02,7.52-.04.92,0,1.86,0,2.77-.17,1.32-.23,1.62-.96.89-2.09ZM148.91,40.94c-1.57,1.65-3.37,2.51-5.67,2.38-1.15-.06-2.31.03-3.47-.06-1.52-.1-2.24-.74-2.3-2.24-.11-2.49-.13-4.99-.05-7.48.06-1.71.81-2.38,2.54-2.49.92-.07,1.85-.01,2.77-.01h0c.75.01,1.49,0,2.23.01,2.65.01,4.36,1.37,5.25,3.77.85,2.28.43,4.3-1.3,6.12Z"/>
  </g>
  <g id="Layer_13" data-name="Layer 13">
    <path class="cls-2" d="M321.58,23.83c-.41,2.28-.99,4.52-1.55,6.77-1.67,6.68-3.36,13.37-5.05,20.05-1.53,6.06-3.07,12.11-4.59,18.17-.32,1.26-1.11,1.88-2.39,1.89-1.62.01-3.25,0-4.87,0v.04c-1.3,0-2.6.01-3.9,0-2.39-.02-3-.42-3.67-2.76-.72-2.53-1.29-5.11-1.95-7.67-1.18-4.62-2.36-9.24-3.59-13.84-.25-.93-.34-2.4-1.6-2.2-.65.1-1.36,1.41-1.59,2.29-1.6,6.23-3.09,12.49-4.62,18.74-.28,1.12-.6,2.24-.94,3.34-.42,1.37-1.4,2.05-2.8,2.06-3.11.03-6.22.03-9.33.01-1.46,0-2.12-.91-2.45-2.21-1.31-5.31-2.65-10.6-3.98-15.9-1.97-7.9-7.03-26.76-7.47-28.31-.62-2.16.08-3.12,2.32-3.12,2.73-.01,5.47.09,8.2.2,1.63.07,2.16.6,2.51,2.42,1.09,5.68,2.15,11.37,3.25,17.05.49,2.49,1.03,4.98,1.56,7.47.09.41.16.86.4,1.17.28.37.71.81,1.11.85.29.03.8-.47.93-.84.44-1.22.79-2.47,1.1-3.73,1.78-7.19,3.51-14.39,5.31-21.57.63-2.5,1.23-2.91,3.81-2.9,2.13,0,4.27.03,6.4.07,2.36.04,2.92.49,3.43,2.78,1.77,7.81,3.51,15.62,5.3,23.43.22.93.19,2.4,1.43,2.34.6-.02,1.36-1.35,1.65-2.21.64-1.93,1.11-3.92,1.53-5.91,1.19-5.76,2.31-11.52,3.48-17.28.6-2.95,1.1-3.4,4.07-3.41,2.18-.01,4.37.03,6.54.17,1.78.11,2.34.79,2.01,2.55Z"/>
  </g>
  <g id="Layer_12" data-name="Layer 12">
    <path class="cls-1" d="M74.9,2.16c-1.42,2.91-2.92,5.78-4.49,8.61-.96,1.71-2.66,1.95-4.47,1.93-8.35-.11-16.7-.19-25.05-.25-3.43-.02-6.87.1-10.3.1-7.97,0-10.65,8.93-10.65,10.71,0,8.47.07,16.94-.09,25.4-.06,3.18,1.02,5.64,3.2,7.81,1.58,1.56,1.55,1.8.41,3.68-2.17,3.55-4.27,7.15-6.51,10.65-1.75,2.75-3.67,2.72-5.45-.01-1.29-1.98-2.41-4.06-3.64-6.07-2.26-3.7-4.53-7.41-6.85-11.07-.69-1.1-1.42-2.13-.73-3.45.65-1.27,1.91-1.32,3.13-1.37h.28c4.21-.03,4.57-.38,4.57-4.64.02-7.54-.11-15.09.04-22.63.13-6.27,2.99-11.35,7.68-15.41,1.21-1.06,2.6-1.94,3.97-2.79,3.69-2.29,24.51-3.36,30.73-3.36h21.71c.42,0,.84,0,1.25.05,1.37.17,1.86.87,1.26,2.11Z"/>
    <path class="cls-1" d="M19.95,3.36C25.09.18,44.46,0,50.68,0h21.71"/>
  </g>
  <g id="Layer_10" data-name="Layer 10">
    <path class="cls-2" d="M117.39,23.52c-1.2.35-2.44.58-3.67.8-2.2.38-2.81.98-2.78,3.21.05,3.98.28,19.44.21,23.19-.13,6.82-3.32,12.11-8.39,16.42-4.32,3.67-9.23,5.61-15.03,5.55-13.22-.14-26.44-.04-39.66-.07-3.4-.01-3.68-.52-2.19-3.59.97-2,1.98-3.99,2.94-5.99.77-1.6,1.99-2.26,3.79-2.24,6.08.06,30.03-.18,35.92,0,5.78.19,10.99-5.21,10.97-10.7-.03-6.48-.16-24.81-.15-27.5.01-1.97-.54-3.7-1.71-5.31-1.6-2.18-1.45-2.63-.04-4.97,1.83-3.06,3.48-6.22,5.2-9.34.2-.37.36-.76.56-1.12,1.19-2.17,2.82-2.26,4.07-.13,1.68,2.88,3.19,5.86,4.91,8.72,1.97,3.29,4.07,6.51,6.18,9.71,1.08,1.63.78,2.8-1.13,3.36Z"/>
  </g>
  <g id="Layer_9" data-name="Layer 9">
    <path class="cls-2" d="M208.11,68.17c-.04,1.86-.56,2.44-2.41,2.47-3.67.07-7.33.06-11,.07-5.61.01-11.22.01-16.84,0-2.46,0-3.04-.54-3.05-3.03-.03-7.31.1-36.36.08-43.58,0-2.23.52-2.79,2.79-2.79,9.09.01,18.19.03,27.28.05,2.68.01,3.11.47,3.13,3.19,0,1.11,0,2.22-.01,3.33,0,2.59-.52,3.13-3.07,3.14-4.55.01-9.1,0-13.64,0-.51,0-1.02,0-1.53.03-1.82.12-2.5.77-2.6,2.58-.05,1.01-.06,2.03-.03,3.05.07,1.94.77,2.69,2.74,2.73,2.97.07,5.94.04,8.91.04,1.62,0,3.24-.02,4.87.02,1.77.04,2.34.6,2.4,2.34.05,1.52.07,3.05.05,4.58-.02,1.86-.53,2.39-2.42,2.4-3.85.03-7.7.01-11.56.01-.55,0-1.11,0-1.67.01-2.59.06-3.22.65-3.28,3.2-.05,2.22-.05,4.45-.01,6.67.05,2.25.77,2.99,3.08,2.97,4.82-.04,9.64-.18,14.46-.24,2.86-.03,3.3.44,3.33,3.29.01,1.16.03,2.32,0,3.47Z"/>
  </g>
  <g id="Layer_8" data-name="Layer 8">
    <path class="cls-2" d="M361.82,68.06c-.05,2.05-.63,2.64-2.7,2.65-4.87.02-9.74,0-14.61,0-4.32.01-8.63.03-12.94.03-2.28.01-2.82-.51-2.83-2.76-.01-7.31,0-14.62,0-21.93h.01c0-7.03,0-14.07.01-21.1,0-3.3.29-3.53,3.57-3.53,8.72.01,17.44-.04,26.16-.03,2.98,0,3.31.37,3.32,3.4,0,1.15.01,2.31-.01,3.47-.04,2.06-.57,2.64-2.67,2.67-4.08.06-8.16.03-12.24.05-1.26.01-2.51.01-3.76.08-1.34.07-2.17.78-2.28,2.15-.1,1.19-.19,2.4-.15,3.6.06,1.8.76,2.54,2.57,2.59,2.55.08,5.1.05,7.65.05,2.32,0,4.64-.01,6.96,0,2.33.01,2.83.54,2.84,2.9.01,1.29-.01,2.59-.02,3.88-.03,1.94-.54,2.51-2.48,2.53-4.45.04-8.9.02-13.36.03-.55,0-1.11.02-1.66.06-1.3.11-2.13.82-2.17,2.11-.09,2.81-.14,5.63-.03,8.44.06,1.6.95,2.24,2.78,2.22,3.06-.03,6.12-.17,9.18-.23,1.95-.04,3.9-.02,5.85-.01,2.43.02,2.96.54,2.99,2.92.02,1.25.04,2.5.02,3.75Z"/>
  </g>
  <g id="Layer_7" data-name="Layer 7">
    <path class="cls-2" d="M404.22,65.05c-.02,1.11-.04,2.22-.08,3.33-.05,1.32-.72,2.06-2.09,2.07-9.56.09-19.11.2-28.67.26-1.74.01-2.27-.66-2.27-2.6-.02-7.36-.01-14.72-.01-22.08h-.02v-21.66c0-2.42.49-3.05,2.88-3.05,9.33-.01,18.65.03,27.98.09,1.59.01,2.17.64,2.21,2.23.04,1.52,0,3.05-.02,4.58-.04,2.14-.61,2.74-2.74,2.75-4.6.03-9.19,0-13.79.02-3.97.01-4.42.46-4.56,4.46-.02.37-.03.74-.02,1.11.08,2.03.76,2.77,2.78,2.86,1.53.06,3.06.02,4.59.02,3.16.01,6.31-.01,9.47.02,2.02.02,2.55.57,2.59,2.58.02,1.38.03,2.77,0,4.16-.03,1.98-.6,2.54-2.62,2.55-4.36.03-8.72.01-13.09.04-2.84.02-3.45.65-3.46,3.43-.01,2.13-.04,4.26,0,6.39.05,2.36.84,3.02,3.17,2.97,4.78-.09,9.55-.16,14.33-.16,3.06,0,3.5.53,3.44,3.63Z"/>
  </g>
  <g id="Layer_6" data-name="Layer 6">
    <path class="cls-2" d="M445.48,21.12c4,.02,4.34.4,4.34,4.38-.01,1.01.04,2.03,0,3.05-.06,1.78-.69,2.42-2.49,2.44-2.78.02-5.57-.01-8.35-.01-.6.01-1.21.03-1.8.09-1.24.14-1.93.87-2.06,2.08-.06.65-.07,23.61-.06,34.44,0,2.67-.47,3.14-3.17,3.14-2.23-.01-4.45.01-6.68-.01-2.22-.01-2.82-.61-2.82-2.8.05-11.02.15-33.61.14-33.88-.06-2.17-.78-2.97-2.93-3.02-2.78-.06-5.57-.02-8.35-.02-2.62-.01-3.07-.45-3.09-3.08-.01-1.2-.04-2.4-.04-3.61.02-2.34.52-2.92,2.84-2.94"/>
  </g>
  <g id="Layer_5" data-name="Layer 5">
    <path class="cls-2" d="M253.24,28.12c.03,2.09-.49,2.6-2.63,2.67-2.78.09-5.56.14-8.34.2-2.84.07-3.5.62-3.49,3.45.01,4.3.05,26.79-.06,33.73-.03,1.99-.59,2.52-2.62,2.55-2.28.03-4.55.02-6.83.01-2.07-.01-2.67-.58-2.67-2.65-.02-5.69-.01-11.38-.01-17.08,0,0,.17-11.2.18-16.8,0-2.4-.69-3.16-3.14-3.19-2.93-.05-5.85,0-8.77-.01-2.16-.01-2.74-.58-2.77-2.71-.02-1.48-.03-2.96,0-4.44.04-1.82.6-2.41,2.44-2.46,4.23-.11,8.45-.2,12.67-.22,7.14-.04,14.28.01,21.43-.02,3.24-.02,3.9.47,4.35,3.65.15,1.1.24,2.21.26,3.32Z"/>
  </g>
  <g id="Layer_4" data-name="Layer 4">
    <path class="cls-1" d="M97.2,4.17c-1.48,2.6-2.99,5.21-4.72,7.65-.43.61-1.71.82-2.61.83-2.12.03-12.91.07-12.91.07-1.97.01-2.58-.71-1.77-2.45,1.43-3.06,2.94-6.09,4.61-9.01.38-.67,1.58-1.18,2.43-1.21,3.09-.14,13.66.02,15.26.7,1.08.45.24,2.49-.29,3.42Z"/>
    <path class="cls-2" d="M44.2,64.3c-1.48,2.6-2.99,5.21-4.72,7.65-.43.61-1.71.82-2.61.83-2.12.03-12.91.07-12.91.07-1.97.01-2.58-.71-1.77-2.45,1.43-3.06,2.94-6.09,4.61-9.01.38-.67,1.58-1.18,2.43-1.21,3.09-.14,13.66.02,15.26.7,1.08.45.24,2.49-.29,3.42Z"/>
  </g>
</svg>